{"title":"The Hunger Games Mockingjay Part 1 2014 1080p WEB-DL 6CH x264 (2","uid":11709351,"size":2224458669,"categoryP":"video","categoryS":"hd___movies","magnet":"?xt=urn:btih:ba8ce63099cd211a8ecb186a0f575b4ea54a115e&amp;dn=The+Hunger+Games+Mockingjay+Part+1+2014+1080p+WEB-DL+6CH+x264+%282&amp;tr=udp%3A%2F%2Ftracker.openbittorrent.com%3A80&amp;tr=udp%3A%2F%2Fopen.demonii.com%3A1337&amp;tr=udp%3A%2F%2Ftracker.coppersurfer.tk%3A6969&amp;tr=udp%3A%2F%2Fexodus.desync.com%3A6969","seeders":21,"leechers":1,"uploader":"shawnmurthy","files":1,"time":1424219018,"description":"SOURCE IS RARBG...PIMP4003\n\nSCREENSHOTS GO HERE...pimp4003DOTnet/torrents.php?id=ba8ce63099cd211a8ecb186a0f575b4ea54a115e\n &lt;a href=&quot;\nhttp://i.imgur.com/J3ny9bJ.jpg&quot; rel=&quot;nofollow&quot; target=&quot;_NEW&quot;&gt;\nhttp://i.imgur.com/J3ny9bJ.jpg&lt;/a&gt;\n &lt;a href=&quot;\nhttp://i.imgur.com/SpsuXOR.png&quot; rel=&quot;nofollow&quot; target=&quot;_NEW&quot;&gt;\nhttp://i.imgur.com/SpsuXOR.png&lt;/a&gt;\n\nIMP THE ONE AND ONLY PIMPSTER.....PRESENTS\n\nfacebookDOTcom/OfficialPimp4003\n\ntwitterDOTcom/KingPimp4003\n &lt;a href=&quot;\nhttp://i.imgur.com/ndOj0nT.jpg&quot; rel=&quot;nofollow&quot; target=&quot;_NEW&quot;&gt;\nhttp://i.imgur.com/ndOj0nT.jpg&lt;/a&gt;\n\nThe Hunger Games Mockingjay Part 1 2014 1080p WEB-DL 6CH x264 (2GB) Pimp4003\n &lt;a href=&quot;\nhttp://www.imdb.com/title/tt1951265/&quot; rel=&quot;nofollow&quot; target=&quot;_NEW&quot;&gt;\nhttp://www.imdb.com/title/tt1951265/&lt;/a&gt; \n\nKatniss Everdeen is in District 13 after she shatters the games forever. Under the leadership of President Coin and the advice of her trusted friends, Katniss spreads her wings as she fights to save Peeta and a nation moved by her courage.\n\nDirector: Francis Lawrence\n\nWriters: Peter Craig (screenplay), Danny Strong(screenplay), 2 more credits Â»\n\nStars: Jennifer Lawrence, Josh Hutcherson, Liam Hemsworth | See full cast and crew Â»\n\nVideo\n\nID : 1\n\nFormat : AVC\n\nFormat/Info : Advanced Video Codec\n\nFormat profile : &lt;a class=&quot;__cf_email__&quot; href=&quot;/cdn-cgi/l/email-protection&quot; data-cfemail=&quot;420f232b2c020e766c72&quot;&gt;[email&amp;#160;protected]&lt;/a&gt;&lt;script cf-hash='f9e31' type=&quot;text/javascript&quot;&gt;\n/* &lt;![CDATA[ */!function(){try{var t=&quot;currentScript&quot;in document?document.currentScript:function(){for(var t=document.getElementsByTagName(&quot;script&quot;),e=t.length;e--;)if(t[e].getAttribute(&quot;cf-hash&quot;))return t[e]}();if(t&amp;&amp;t.previousSibling){var e,r,n,i,c=t.previousSibling,a=c.getAttribute(&quot;data-cfemail&quot;);if(a){for(e=&quot;&quot;,r=parseInt(a.substr(0,2),16),n=2;a.length-n;n+=2)i=parseInt(a.substr(n,2),16)^r,e+=String.fromCharCode(i);e=document.createTextNode(e),c.parentNode.replaceChild(e,c)}}}catch(u){}}();/* ]]&gt; */&lt;/script&gt;\n\nFormat settings, CABAC : Yes\n\nFormat settings, ReFrames : 4 frames\n\nCodec ID : avc1\n\nCodec ID/Info : Advanced Video Coding\n\nDuration : 1h 57mn\n\nBit rate : 2 290 Kbps\n\nWidth : 1 912 pixels\n\nHeight : 792 pixels\n\nDisplay aspect ratio : 2.40:1\n\nFrame rate mode : Constant\n\nFrame rate : 25.000 fps\n\nColor space : YUV\n\nChroma subsampling : 4:2:0\n\nBit depth : 8 bits\n\nScan type : Progressive\n\nBits/(Pixel*Frame) : 0.060\n\nStream size : 1.88 GiB (91%)\n\nWriting library : x264 core 130 r2273 b3065e6\n\nEncoding settings : cabac=1 / ref=1 / deblock=1:0:0 / analyse=0x1:0x111 / me=hex / subme=2 / psy=1 / psy_rd=1.00:0.00 / mixed_ref=0 / me_range=16 / chroma_me=1 / trellis=0 / 8x8dct=0 / cqm=0 / deadzone=21,11 / fast_pskip=1 / chroma_qp_offset=0 / threads=3 / lookahead_threads=1 / sliced_threads=0 / nr=0 / decimate=1 / interlaced=0 / bluray_compat=0 / constrained_intra=0 / bframes=3 / b_pyramid=2 / b_adapt=1 / b_bias=0 / direct=1 / weightb=1 / open_gop=0 / weightp=1 / keyint=250 / keyint_min=25 / scenecut=40 / intra_refresh=0 / rc_lookahead=10 / rc=crf / mbtree=1 / crf=20.0 / qcomp=0.60 / qpmin=0 / qpmax=69 / qpstep=4 / vbv_maxrate=20000 / vbv_bufsize=25000 / crf_max=0.0 / nal_hrd=none / ip_ratio=1.40 / aq=1:1.00\n\nEncoded date : UTC 2015-02-17 05:59:40\n\nTagged date : UTC 2015-02-17 11:29:26\n\nColor primaries : BT.709\n\nTransfer characteristics : BT.709\n\nMatrix coefficients : BT.709\n\nAudio\n\nID : 2\n\nFormat : AAC\n\nFormat/Info : Advanced Audio Codec\n\nFormat profile : LC\n\nCodec ID : 40\n\nDuration : 1h 57mn\n\nBit rate mode : Variable\n\nBit rate : 224 Kbps\n\nMaximum bit rate : 326 Kbps\n\nChannel(s) : 6 channels\n\nChannel positions : Front: L C R, Side: L R, LFE\n\nSampling rate : 48.0 KHz\n\nCompression mode : Lossy\n\nStream size : 189 MiB (9%)\n\nLanguage : English\n\nEncoded date : UTC 2015-02-17 05:59:40\n\nTagged date : UTC 2015-02-17 11:29:25\n\nMenu\n\nID : 3\n\nCodec ID : text\n\nDuration : 1h 57mn\n\nEncoded date : UTC 2015-02-17 05:59:40\n\nTagged date : UTC 2015-02-17 11:29:26\n\nBit rate mode : CBR","torrent":{"xt":"urn:btih:ba8ce63099cd211a8ecb186a0f575b4ea54a115e","amp;dn":"The+Hunger+Games+Mockingjay+Part+1+2014+1080p+WEB-DL+6CH+x264+%282","amp;tr":["udp%3A%2F%2Ftracker.openbittorrent.com%3A80","udp%3A%2F%2Fopen.demonii.com%3A1337","udp%3A%2F%2Ftracker.coppersurfer.tk%3A6969","udp%3A%2F%2Fexodus.desync.com%3A6969"],"infoHash":"ba8ce63099cd211a8ecb186a0f575b4ea54a115e","infoHashBuffer":{"type":"Buffer","data":[186,140,230,48,153,205,33,26,142,203,24,106,15,87,91,78,165,74,17,94]},"announce":[],"urlList":[]}}